<?xml version="1.0" encoding="iso-8859-1"?>
<!-- Generator: Adobe Illustrator 18.0.0, SVG Export Plug-In . SVG Version: 6.00 Build 0)  -->
<!DOCTYPE svg PUBLIC "-//W3C//DTD SVG 1.1//EN" "http://www.w3.org/Graphics/SVG/1.1/DTD/svg11.dtd">
<svg xmlns="http://www.w3.org/2000/svg" xmlns:xlink="http://www.w3.org/1999/xlink" version="1.1" id="Capa_1" x="0px" y="0px" viewBox="0 0 425.432 425.432" style="enable-background:new 0 0 425.432 425.432;" xml:space="preserve" width="512px" height="512px">
<g>
	<path d="M336.28,169.958h-1.97c-0.856-14.064-4.135-27.917-9.815-41.013c-1.647-3.8-6.062-5.544-9.865-3.897   c-3.8,1.648-5.544,6.065-3.896,9.865c4.857,11.197,7.716,23.027,8.551,35.045h-44.359c-4.142,0-7.5,3.358-7.5,7.5   s3.358,7.5,7.5,7.5h44.356c-0.277,3.896-0.764,7.792-1.469,11.675c-3.887,21.417-14.109,40.906-29.563,56.359   c-18.398,18.398-42.325,29.253-68.034,31.025v-44.35c0-4.142-3.358-7.5-7.5-7.5s-7.5,3.358-7.5,7.5v44.35   c-25.708-1.771-49.636-12.627-68.034-31.025c-18.398-18.398-29.253-42.325-31.025-68.034h44.35c4.142,0,7.5-3.358,7.5-7.5   s-3.358-7.5-7.5-7.5h-44.35c1.771-25.709,12.627-49.636,31.025-68.034c18.366-18.366,42.326-29.24,68.034-31.02v44.345   c0,4.142,3.358,7.5,7.5,7.5s7.5-3.358,7.5-7.5V70.903c24.812,1.718,48.053,11.913,66.205,29.234   c2.997,2.859,7.745,2.749,10.604-0.249c2.859-2.997,2.748-7.744-0.249-10.604c-20.961-20-47.891-31.683-76.561-33.421v-1.97   c0-4.142-3.358-7.5-7.5-7.5s-7.5,3.358-7.5,7.5v1.972c-29.716,1.803-57.445,14.256-78.64,35.451   c-21.232,21.232-33.653,48.923-35.446,78.641h-1.977c-4.142,0-7.5,3.358-7.5,7.5s3.358,7.5,7.5,7.5h1.977   c1.793,29.718,14.214,57.409,35.446,78.64c21.232,21.232,48.922,33.653,78.64,35.446v1.977c0,4.142,3.358,7.5,7.5,7.5   s7.5-3.358,7.5-7.5v-1.977c29.718-1.793,57.409-14.214,78.641-35.446c17.623-17.622,29.281-39.852,33.715-64.287   c0.866-4.773,1.434-9.564,1.733-14.353h1.976c4.142,0,7.5-3.358,7.5-7.5S340.422,169.958,336.28,169.958z" fill="#383838"/>
	<path d="M298.799,112.243c0,6.629,8.386,9.978,12.935,5.168c2.419-2.558,2.734-6.558,0.72-9.452   c-1.667-2.395-4.672-3.63-7.542-3.083C301.421,105.542,298.799,108.675,298.799,112.243z" fill="#383838"/>
	<path d="M338.256,51.917L338.256,51.917c-69.223-69.223-181.858-69.223-251.081,0c-33.533,33.533-52.001,78.117-52.001,125.54   s18.468,92.007,52.001,125.54l120.237,120.237c1.406,1.406,3.314,2.197,5.303,2.197s3.897-0.79,5.303-2.197l120.237-120.237   c33.533-33.533,52.001-78.117,52.001-125.54S371.79,85.45,338.256,51.917z M327.65,292.392L212.716,407.325L97.782,292.392   c-30.7-30.7-47.607-71.518-47.607-114.934S67.083,93.224,97.782,62.524c31.688-31.687,73.311-47.531,114.934-47.531   c41.624,0,83.247,15.844,114.934,47.531c30.7,30.7,47.607,71.518,47.607,114.934S358.35,261.692,327.65,292.392z" fill="#383838"/>
</g>
<g>
</g>
<g>
</g>
<g>
</g>
<g>
</g>
<g>
</g>
<g>
</g>
<g>
</g>
<g>
</g>
<g>
</g>
<g>
</g>
<g>
</g>
<g>
</g>
<g>
</g>
<g>
</g>
<g>
</g>
</svg>
