<svg xmlns="http://www.w3.org/2000/svg" viewBox="0 0 480 480" width="512" height="512"><g fill="#753d9d"><path d="M297.68 127.2h-.032a65.433 65.433 0 0 0 7.792 13.296c.411.673.9 1.296 1.456 1.856a57.853 57.853 0 0 1 1.984 2.4c9.424 11.44 11.92 17.312 13.12 39.248a30.75 30.75 0 0 0 6 18.448V232a20 20 0 0 0 13.192 18.808c3.768 10.383 15.241 15.745 25.623 11.977a20.003 20.003 0 0 0 11.977-11.977A19.998 19.998 0 0 0 392 232v-29.528a30.211 30.211 0 0 0 5.984-18.048c1.176-22.4 3.704-28.232 13.208-39.792.608-.76 1.256-1.52 1.496-1.832a13.042 13.042 0 0 0 1.856-2.288A64.997 64.997 0 0 0 422.4 127.2c14.975-34.44-.804-74.5-35.245-89.475s-74.5.804-89.475 35.245a68 68 0 0 0 0 54.23zM376 232a4 4 0 0 1-4 4 8 8 0 0 0-8 8 4 4 0 0 1-8 0 8 8 0 0 0-8-8 4 4 0 0 1-4-4v-24h32v24zM339.294 52.321A52.076 52.076 0 0 1 360 48c28.754.033 52.037 23.37 52.004 52.124a52.051 52.051 0 0 1-4.308 20.676 49.655 49.655 0 0 1-6.096 10.32c-.23.248-.439.516-.624.8-.8.92-1.6 1.848-2.216 2.648-12.168 14.8-15.456 24.416-16.76 49.432a14.07 14.07 0 0 1-2.192 8h-39.6a14.735 14.735 0 0 1-2.216-8.424c-1.296-24.592-4.584-34.208-16.664-48.896a25.795 25.795 0 0 0-2.272-2.56 8.562 8.562 0 0 0-.656-1 49.613 49.613 0 0 1-6.08-10.288c-11.47-26.367.607-57.041 26.974-68.511zM352 0h16v16h-16zm-54.238 22.466l11.314 11.314-11.314 11.313L286.45 33.78zM264 88h16v16h-16z"/><path d="M286.446 158.214l11.313-11.313 11.314 11.313-11.314 11.314zM422.23 169.52l-11.314-11.313 11.314-11.314 11.314 11.314zM440 88h16v16h-16zm-17.773-65.544L433.54 33.77l-11.313 11.314-11.314-11.314zM456 328h-72v-24c0-13.255-10.745-24-24-24s-24 10.745-24 24v72h-8c-13.255 0-24 10.745-24 24v24a8 8 0 0 0 2.344 5.656L336 459.312V480h16v-24a8 8 0 0 0-2.344-5.656L320 420.688V400a8 8 0 0 1 8-8h72v8a8 8 0 0 1-8 8h-40a8 8 0 0 0 0 16h8c13.255 0 24 10.745 24 24v16h16v-16a39.781 39.781 0 0 0-8-24 23.792 23.792 0 0 0 15.72-6.016c9.266 7.912 22.874 8.033 32.28.288A23.09 23.09 0 0 0 456 424a26.042 26.042 0 0 0 8-1.296V480h16V352c0-13.255-10.745-24-24-24zm-88 48h-16v-72a8 8 0 0 1 16 0v72zm32 0h-16v-32h16v32zm25.483 31.991A7.35 7.35 0 0 1 424 408a7.32 7.32 0 0 1-8-8v-56h16v55.904a7.344 7.344 0 0 1-6.517 8.087zm32 0A7.35 7.35 0 0 1 456 408a7.32 7.32 0 0 1-8-8v-56h8a8 8 0 0 1 8 8v47.904a7.344 7.344 0 0 1-6.517 8.087zM360 72V56c-22.08.026-39.974 17.92-40 40h16c0-13.255 10.745-24 24-24zM232 304h8c13.255 0 24-10.745 24-24v-8c0-13.255-10.745-24-24-24h-24v16h24a8 8 0 0 1 8 8v8a8 8 0 0 1-8 8h-16a8 8 0 0 0-8 8v64H72v-64a8 8 0 0 0-8-8h-8a8 8 0 0 1-8-8H32c0 13.255 10.745 24 24 24v56H0v16h84.688l53.656 53.656A8 8 0 0 0 144 432h.304a7.998 7.998 0 0 0 5.768-2.792l45.6-53.2H296V360h-64v-56zm-88.456 108.232L107.312 376h67.296l-31.064 36.232zM32 168c.026-22.08 17.92-39.974 40-40h80c13.255 0 24 10.745 24 24h16c-.026-22.08-17.92-39.974-40-40H72c-30.911.04-55.96 25.089-56 56v32h16v-32zm216 8v56h16v-56c-.026-22.08-17.92-39.974-40-40h-16v16h16c13.255 0 24 10.745 24 24z"/><path d="M176 288a8 8 0 0 1 8 8h16c0-13.255-10.745-24-24-24s-24 10.745-24 24h16a8 8 0 0 1 8-8zm-64-16c-13.255 0-24 10.745-24 24h16a8 8 0 0 1 16 0h16c0-13.255-10.745-24-24-24zm48 56h-8v-16h-16v16h-8v16h32zm16-160v16c-.04 35.33-28.67 63.96-64 64H16v16h96c37.368-.062 69.728-25.955 77.984-62.4A47.817 47.817 0 0 0 216 215.336V232h16v-24a8 8 0 0 0-8-8c-17.673 0-32-14.327-32-32h-16z"/><path d="M160 176v-8h-16v8c-.026 22.08-17.92 39.974-40 40H0v16h104c30.911-.04 55.96-25.089 56-56z"/></g></svg>