<svg xmlns="http://www.w3.org/2000/svg" viewBox="0 0 496 496" width="512" height="512"><g fill="#753d9d"><path d="M451.052 140.92l-14.768 6.16L448.34 176h-52.672v16h59.336l20 48-20 48H332.98c-21.408-19.792-49.92-32-81.312-32s-59.904 12.208-81.312 32H35.668v16h120.224c-15.136 20.08-24.224 44.968-24.224 72 0 66.168 53.832 120 120 120s120-53.832 120-120c0-27.032-9.088-51.92-24.224-72H448.34l-12.048 28.92 14.768 6.16L492.332 240l-41.28-99.08zM355.668 376c0 57.344-46.656 104-104 104s-104-46.656-104-104 46.656-104 104-104 104 46.656 104 104z"/><path d="M67.748 252.72l140.968-76.36 17.728 17.728-32.88 4.112c-12.48 1.56-21.896 12.224-21.896 24.8 0 13.784 11.216 25 25 25 4.936 0 9.928-.272 14.84-.824l70.568-7.84 10.24-40.976-33.76-47.264 43.328-6.192L317.636 200h46.032c13.232 0 24-10.768 24-24s-10.768-24-24-24h-9.448l-7.112-35.56-31.352-37.616A41.02 41.02 0 0 0 284.132 64c-1.912 0-3.816.168-5.704.432l-33.632-16.816-68.56 13.712c-11.92 2.392-20.568 12.936-20.568 25.088 0 14.104 11.48 25.584 25.584 25.584h4.4l-2.264 1.232L40.316 203.6c-7.92 5-12.648 13.584-12.648 22.952v2.296C27.668 243.824 39.844 256 54.82 256c4.496 0 8.968-1.136 12.928-3.28zm207.256-51.072l-5.752 23.016-59.504 6.608c-4.328.488-8.728.728-13.08.728-4.96 0-9-4.04-9-9 0-4.52 3.392-8.36 7.88-8.92l65.336-8.168-37.496-37.496 20.104-10.888 31.512 44.12zM181.252 96c-5.288 0-9.584-4.296-9.584-9.584 0-4.544 3.24-8.504 7.704-9.4l63.168-12.632 15.856 7.928-32.288 17.616-38.328 5.952c-.496.08-.976.12-1.472.12h-5.056zM43.668 228.848v-2.296c0-3.84 1.944-7.368 5.192-9.424l142.632-90.112 80.576-43.944A25.294 25.294 0 0 1 284.132 80a25.07 25.07 0 0 1 19.336 9.064l28.76 34.504L341.116 168h22.552c4.416 0 8 3.584 8 8s-3.584 8-8 8H329.7l-16.256-56.904-64.32 9.184-189 102.376A11.277 11.277 0 0 1 54.82 240c-6.152 0-11.152-5-11.152-11.152z"/><path d="M355.668 96c26.472 0 48-21.528 48-48s-21.528-48-48-48-48 21.528-48 48 21.528 48 48 48zm0-80c17.648 0 32 14.352 32 32s-14.352 32-32 32-32-14.352-32-32 14.352-32 32-32zm-352 272h16v16h-16zm0-168h16v16h-16zm32 0h80v16h-80zm-16-32h16v16h-16zm32 0h88v16h-88zm-16-32h16v16h-16zm32 0h80v16h-80zm184 232c-48.52 0-88 39.48-88 88v8h24v-16h-7.528a71.598 71.598 0 0 1 5.592-20.832l6.512 3.76 8-13.856-6.448-3.728a72.396 72.396 0 0 1 15.216-15.216l3.728 6.448 13.856-8-3.76-6.512a71.348 71.348 0 0 1 20.832-5.592V312h16v-7.528a71.348 71.348 0 0 1 20.832 5.592l-3.76 6.512 13.856 8 3.728-6.448a72.396 72.396 0 0 1 15.216 15.216l-6.448 3.728 8 13.856 6.512-3.76A71.348 71.348 0 0 1 323.196 368h-7.528v16h24v-8c0-48.52-39.48-88-88-88z"/><path d="M258.159 420.656l-13.012-9.294 39.994-55.993 13.012 9.294zM243.668 440h16v16h-16zm32 0h16v16h-16zm-64 0h16v16h-16z"/></g></svg>